<svg width="40" height="40" viewBox="0 0 40 40" fill="none" xmlns="http://www.w3.org/2000/svg">
  <!-- Background circle -->
  <rect width="40" height="40" rx="10" fill="#E07A5F"/>
  
  <!-- Book icon -->
  <g transform="translate(8, 7)">
    <!-- Book pages -->
    <path d="M12 4C10.5 4 4 4.5 4 6.5V23C4 23 9 22 12 22C15 22 20 23 20 23V6.5C20 4.5 13.5 4 12 4Z" fill="#F8F4EA" stroke="#F8F4EA" stroke-width="1"/>
    
    <!-- Center line (book binding) -->
    <path d="M12 4V22" stroke="#E07A5F" stroke-width="1.5" stroke-linecap="round"/>
    
    <!-- Left page lines -->
    <path d="M6.5 9H10" stroke="#E07A5F" stroke-width="1" stroke-linecap="round" opacity="0.5"/>
    <path d="M6.5 12H10" stroke="#E07A5F" stroke-width="1" stroke-linecap="round" opacity="0.5"/>
    <path d="M6.5 15H10" stroke="#E07A5F" stroke-width="1" stroke-linecap="round" opacity="0.5"/>
    
    <!-- Right page lines -->
    <path d="M14 9H17.5" stroke="#E07A5F" stroke-width="1" stroke-linecap="round" opacity="0.5"/>
    <path d="M14 12H17.5" stroke="#E07A5F" stroke-width="1" stroke-linecap="round" opacity="0.5"/>
    <path d="M14 15H17.5" stroke="#E07A5F" stroke-width="1" stroke-linecap="round" opacity="0.5"/>
    
    <!-- Heart accent -->
    <path d="M12 19C12 19 9 17 9 15.5C9 14.5 10 14 11 14.5C11.5 14.75 12 15.5 12 15.5C12 15.5 12.5 14.75 13 14.5C14 14 15 14.5 15 15.5C15 17 12 19 12 19Z" fill="#E07A5F"/>
  </g>
</svg>

