<svg width="120" height="120" viewBox="0 0 120 120" fill="none" xmlns="http://www.w3.org/2000/svg">
  <!-- QR Code placeholder pattern -->
  <rect width="120" height="120" fill="white"/>
  
  <!-- Corner squares -->
  <rect x="8" y="8" width="28" height="28" fill="#1a1a1a"/>
  <rect x="12" y="12" width="20" height="20" fill="white"/>
  <rect x="16" y="16" width="12" height="12" fill="#1a1a1a"/>
  
  <rect x="84" y="8" width="28" height="28" fill="#1a1a1a"/>
  <rect x="88" y="12" width="20" height="20" fill="white"/>
  <rect x="92" y="16" width="12" height="12" fill="#1a1a1a"/>
  
  <rect x="8" y="84" width="28" height="28" fill="#1a1a1a"/>
  <rect x="12" y="88" width="20" height="20" fill="white"/>
  <rect x="16" y="92" width="12" height="12" fill="#1a1a1a"/>
  
  <!-- Center pattern (simulated) -->
  <rect x="44" y="8" width="8" height="8" fill="#1a1a1a"/>
  <rect x="60" y="8" width="8" height="8" fill="#1a1a1a"/>
  
  <rect x="8" y="44" width="8" height="8" fill="#1a1a1a"/>
  <rect x="24" y="44" width="8" height="8" fill="#1a1a1a"/>
  <rect x="44" y="44" width="8" height="8" fill="#1a1a1a"/>
  <rect x="60" y="44" width="8" height="8" fill="#1a1a1a"/>
  <rect x="76" y="44" width="8" height="8" fill="#1a1a1a"/>
  <rect x="92" y="44" width="8" height="8" fill="#1a1a1a"/>
  <rect x="104" y="44" width="8" height="8" fill="#1a1a1a"/>
  
  <rect x="8" y="60" width="8" height="8" fill="#1a1a1a"/>
  <rect x="24" y="60" width="8" height="8" fill="#1a1a1a"/>
  <rect x="44" y="60" width="8" height="8" fill="#1a1a1a"/>
  <rect x="68" y="60" width="8" height="8" fill="#1a1a1a"/>
  <rect x="84" y="60" width="8" height="8" fill="#1a1a1a"/>
  <rect x="104" y="60" width="8" height="8" fill="#1a1a1a"/>
  
  <rect x="44" y="76" width="8" height="8" fill="#1a1a1a"/>
  <rect x="60" y="76" width="8" height="8" fill="#1a1a1a"/>
  <rect x="76" y="76" width="8" height="8" fill="#1a1a1a"/>
  <rect x="104" y="76" width="8" height="8" fill="#1a1a1a"/>
  
  <rect x="44" y="92" width="8" height="8" fill="#1a1a1a"/>
  <rect x="68" y="92" width="8" height="8" fill="#1a1a1a"/>
  <rect x="84" y="92" width="8" height="8" fill="#1a1a1a"/>
  <rect x="104" y="92" width="8" height="8" fill="#1a1a1a"/>
  
  <rect x="44" y="104" width="8" height="8" fill="#1a1a1a"/>
  <rect x="60" y="104" width="8" height="8" fill="#1a1a1a"/>
  <rect x="76" y="104" width="8" height="8" fill="#1a1a1a"/>
  <rect x="92" y="104" width="8" height="8" fill="#1a1a1a"/>
  
  <!-- Random fill pattern -->
  <rect x="52" y="20" width="8" height="8" fill="#1a1a1a"/>
  <rect x="68" y="20" width="8" height="8" fill="#1a1a1a"/>
  <rect x="44" y="28" width="8" height="8" fill="#1a1a1a"/>
  <rect x="68" y="28" width="8" height="8" fill="#1a1a1a"/>
  
  <rect x="92" y="52" width="8" height="8" fill="#1a1a1a"/>
  <rect x="52" y="52" width="8" height="8" fill="#1a1a1a"/>
  <rect x="84" y="68" width="8" height="8" fill="#1a1a1a"/>
  <rect x="52" y="68" width="8" height="8" fill="#1a1a1a"/>
  
  <rect x="92" y="84" width="8" height="8" fill="#1a1a1a"/>
  <rect x="60" y="84" width="8" height="8" fill="#1a1a1a"/>
</svg>

